<svg xmlns="http://www.w3.org/2000/svg" width="1200" height="675" viewBox="0 0 1200 675">
  <defs>
    <linearGradient id="bg" x1="0" y1="0" x2="1" y2="1">
      <stop offset="0" stop-color="#11182f"/>
      <stop offset="0.48" stop-color="#263f8f"/>
      <stop offset="1" stop-color="#10c7be"/>
    </linearGradient>
    <radialGradient id="glow" cx="0.68" cy="0.22" r="0.6">
      <stop offset="0" stop-color="#fff4c7" stop-opacity="0.75"/>
      <stop offset="1" stop-color="#fff4c7" stop-opacity="0"/>
    </radialGradient>
    <filter id="softShadow" x="-20%" y="-20%" width="140%" height="140%">
      <feDropShadow dx="0" dy="18" stdDeviation="22" flood-color="#06111f" flood-opacity="0.35"/>
    </filter>
  </defs>
  <rect width="1200" height="675" fill="url(#bg)"/>
  <rect width="1200" height="675" fill="url(#glow)"/>
  <g opacity="0.35">
    <circle cx="182" cy="136" r="72" fill="#7de4ff"/>
    <circle cx="1036" cy="522" r="116" fill="#ffffff"/>
    <circle cx="1062" cy="120" r="22" fill="#fff1a6"/>
  </g>
  <g transform="translate(680 350)" fill="none" stroke="#e9fbff" stroke-linecap="round">
    <path d="M-210 0 C-150 -128 -84 -128 -28 0 S112 128 210 0" stroke-width="18" opacity="0.9"/>
    <path d="M-210 76 C-150 -52 -84 -52 -28 76 S112 204 210 76" stroke-width="10" opacity="0.45"/>
    <path d="M-210 -76 C-150 -204 -84 -204 -28 -76 S112 52 210 -76" stroke-width="10" opacity="0.45"/>
  </g>
  <g filter="url(#softShadow)">
    <rect x="78" y="88" width="510" height="500" rx="34" fill="#101727" opacity="0.88"/>
    <text x="120" y="185" fill="#8ff2ff" font-family="Amulya, Arial, sans-serif" font-size="34" font-weight="700" letter-spacing="5">AI AUDIO PRODUCT</text>
    <text x="116" y="314" fill="#ffffff" font-family="Amulya, Arial, sans-serif" font-size="116" font-weight="800">Lucid</text>
    <text x="124" y="390" fill="#e9fbff" font-family="Amulya, Arial, sans-serif" font-size="38" font-weight="600">Binaural Beats &amp; Sleep</text>
    <text x="124" y="468" fill="#bfe8f4" font-family="Amulya, Arial, sans-serif" font-size="30">Tune your brain.</text>
    <text x="124" y="510" fill="#bfe8f4" font-family="Amulya, Arial, sans-serif" font-size="30">Transform your day.</text>
  </g>
</svg>
