<svg xmlns="http://www.w3.org/2000/svg" width="1200" height="675" viewBox="0 0 1200 675">
  <defs>
    <linearGradient id="bg" x1="0" y1="1" x2="1" y2="0">
      <stop offset="0" stop-color="#061515"/>
      <stop offset="1" stop-color="#13a085"/>
    </linearGradient>
  </defs>
  <rect width="1200" height="675" fill="url(#bg)"/>
  <g transform="translate(132 140)">
    <rect width="302" height="390" rx="34" fill="#ffffff" opacity="0.94"/>
    <text x="40" y="92" fill="#0e544d" font-family="Amulya, Arial, sans-serif" font-size="38" font-weight="800">Prompt</text>
    <rect x="40" y="136" width="220" height="18" rx="9" fill="#b2d8d0"/>
    <rect x="40" y="180" width="190" height="18" rx="9" fill="#b2d8d0"/>
    <rect x="40" y="224" width="236" height="18" rx="9" fill="#b2d8d0"/>
    <rect x="40" y="292" width="158" height="48" rx="24" fill="#f0c15d"/>
  </g>
  <g transform="translate(514 140)">
    <rect width="302" height="390" rx="34" fill="#ffffff" opacity="0.86"/>
    <text x="40" y="92" fill="#0e544d" font-family="Amulya, Arial, sans-serif" font-size="38" font-weight="800">Recall</text>
    <rect x="40" y="136" width="210" height="18" rx="9" fill="#b2d8d0"/>
    <rect x="40" y="180" width="238" height="18" rx="9" fill="#b2d8d0"/>
    <rect x="40" y="292" width="128" height="48" rx="24" fill="#47d7b4"/>
  </g>
  <text x="146" y="604" fill="#ffffff" font-family="Amulya, Arial, sans-serif" font-size="42" font-weight="800">Instant AI flashcards</text>
  <text x="146" y="648" fill="#cefff4" font-family="Amulya, Arial, sans-serif" font-size="29">Turn study material into active practice.</text>
</svg>
