<svg xmlns="http://www.w3.org/2000/svg" width="1200" height="675" viewBox="0 0 1200 675">
  <defs>
    <linearGradient id="zoanA" x1="0" y1="0" x2="1" y2="1">
      <stop offset="0" stop-color="#101716"/>
      <stop offset="0.62" stop-color="#182724"/>
      <stop offset="1" stop-color="#28413c"/>
    </linearGradient>
    <filter id="zoanAShadow" x="-20%" y="-20%" width="140%" height="140%">
      <feDropShadow dx="0" dy="16" stdDeviation="18" flood-color="#06100e" flood-opacity="0.4"/>
    </filter>
  </defs>
  <rect width="1200" height="675" fill="url(#zoanA)"/>
  <path d="M0 96H1200M0 579H1200" stroke="#abc8c3" stroke-opacity="0.22"/>
  <path d="M94 0V675M1106 0V675" stroke="#abc8c3" stroke-opacity="0.22"/>
  <g transform="translate(727 337)" fill="none" stroke="#b9d6d1">
    <rect x="-198" y="-198" width="396" height="396" stroke-opacity="0.2"/>
    <rect x="-154" y="-154" width="308" height="308" transform="rotate(45)" stroke-opacity="0.34"/>
    <circle r="146" stroke-opacity="0.28"/>
    <circle r="102" stroke-opacity="0.5"/>
    <circle r="24" fill="#d3e1b4" stroke="none"/>
    <path d="M-264 0H264M0-264V264" stroke-opacity="0.3"/>
    <path d="M-182-182L182 182M182-182L-182 182" stroke-opacity="0.2"/>
  </g>
  <g filter="url(#zoanAShadow)">
    <rect x="72" y="72" width="514" height="531" fill="#0c1312" fill-opacity="0.88"/>
    <rect x="72" y="72" width="8" height="531" fill="#bad5cf"/>
  </g>
  <text x="124" y="157" fill="#bad5cf" font-family="Amulya, Arial, sans-serif" font-size="25" font-weight="700" letter-spacing="4">FOUNDER-LED DESIGN STUDIO</text>
  <text x="118" y="300" fill="#f4f5ee" font-family="Amulya, Arial, sans-serif" font-size="112" font-weight="800">ZOAN</text>
  <text x="122" y="380" fill="#f4f5ee" font-family="Amulya, Arial, sans-serif" font-size="58" font-weight="700" letter-spacing="2">COLLECTIVE</text>
  <text x="124" y="480" fill="#c8d9d4" font-family="Amulya, Arial, sans-serif" font-size="29">Brand, product, and digital</text>
  <text x="124" y="520" fill="#c8d9d4" font-family="Amulya, Arial, sans-serif" font-size="29">experiences built for clarity.</text>
  <text x="1032" y="620" fill="#d3e1b4" font-family="Amulya, Arial, sans-serif" font-size="19" font-weight="700" letter-spacing="3" text-anchor="end">01 / IDENTITY</text>
</svg>
